<svg width="20" height="20" viewBox="0 0 20 20" fill="none" xmlns="http://www.w3.org/2000/svg">
<g id="shopping_bag">
<path fill="#FFFFFF" id="Vector" d="M15 5.00008H13.3333C13.3333 3.15841 11.8417 1.66675 10 1.66675C8.15834 1.66675 6.66667 3.15841 6.66667 5.00008H5C4.08334 5.00008 3.33334 5.75008 3.33334 6.66675V16.6667C3.33334 17.5834 4.08334 18.3334 5 18.3334H15C15.9167 18.3334 16.6667 17.5834 16.6667 16.6667V6.66675C16.6667 5.75008 15.9167 5.00008 15 5.00008ZM10 3.33341C10.9167 3.33341 11.6667 4.08341 11.6667 5.00008H8.33334C8.33334 4.08341 9.08334 3.33341 10 3.33341ZM15 16.6667H5V6.66675H6.66667V8.33342C6.66667 8.79175 7.04167 9.16675 7.5 9.16675C7.95834 9.16675 8.33334 8.79175 8.33334 8.33342V6.66675H11.6667V8.33342C11.6667 8.79175 12.0417 9.16675 12.5 9.16675C12.9583 9.16675 13.3333 8.79175 13.3333 8.33342V6.66675H15V16.6667Z"/>
</g>
</svg>
