<svg width="24" height="24" viewBox="0 0 24 24" fill="none" xmlns="http://www.w3.org/2000/svg">
<mask id="mask0_467_361" style="mask-type:alpha" maskUnits="userSpaceOnUse" x="0" y="0" width="24" height="24">
<rect width="24" height="24" fill="#D9D9D9"/>
</mask>
<g mask="url(#mask0_467_361)">
<path d="M5 21C4.45 21 3.97917 20.8042 3.5875 20.4125C3.19583 20.0208 3 19.55 3 19V5C3 4.45 3.19583 3.97917 3.5875 3.5875C3.97917 3.19583 4.45 3 5 3H17L21 7V12.3C20.6833 12.1667 20.3542 12.0792 20.0125 12.0375C19.6708 11.9958 19.3333 12 19 12.05V7.825L16.175 5H5V19H11V21H5ZM13 23V19.925L18.525 14.425C18.675 14.275 18.8417 14.1667 19.025 14.1C19.2083 14.0333 19.3917 14 19.575 14C19.775 14 19.9667 14.0375 20.15 14.1125C20.3333 14.1875 20.5 14.3 20.65 14.45L21.575 15.375C21.7083 15.525 21.8125 15.6917 21.8875 15.875C21.9625 16.0583 22 16.2417 22 16.425C22 16.6083 21.9667 16.7958 21.9 16.9875C21.8333 17.1792 21.725 17.35 21.575 17.5L16.075 23H13ZM14.5 21.5H15.45L18.475 18.45L18.025 17.975L17.55 17.525L14.5 20.55V21.5ZM18.025 17.975L17.55 17.525L18.475 18.45L18.025 17.975ZM6 10H15V6H6V10ZM12 18H12.1L15 15.125V15C15 14.1667 14.7083 13.4583 14.125 12.875C13.5417 12.2917 12.8333 12 12 12C11.1667 12 10.4583 12.2917 9.875 12.875C9.29167 13.4583 9 14.1667 9 15C9 15.8333 9.29167 16.5417 9.875 17.125C10.4583 17.7083 11.1667 18 12 18Z" fill="#0E74CD"/>
</g>
</svg>
